<?xml version="1.0" encoding="UTF-8" standalone="no"?>
<!DOCTYPE svg PUBLIC "-//W3C//DTD SVG 1.1//EN"
 "http://www.w3.org/Graphics/SVG/1.1/DTD/svg11.dtd">
<!-- Generated by graphviz version 2.40.1 (20161225.0304)
 -->
<!-- Title: dependencies Pages: 1 -->
<svg width="658pt" height="211pt"
 viewBox="0.00 0.00 658.00 211.00" xmlns="http://www.w3.org/2000/svg" xmlns:xlink="http://www.w3.org/1999/xlink">
<g id="graph0" class="graph" transform="scale(1 1) rotate(0) translate(4 207)">
<title>dependencies</title>
<polygon fill="#ffffff" stroke="transparent" points="-4,4 -4,-207 654,-207 654,4 -4,4"/>
<text text-anchor="start" x="304.0091" y="-42.4" font-family="sans-serif" font-weight="bold" font-size="14.00" fill="#000000">Legend</text>
<polygon fill="#ffffb3" stroke="transparent" points="91,-10 91,-30 111,-30 111,-10 91,-10"/>
<text text-anchor="start" x="114.629" y="-15.4" font-family="sans-serif" font-size="14.00" fill="#000000"> &#160;Declarations</text>
<polygon fill="#8dd3c7" stroke="transparent" points="204,-10 204,-30 224,-30 224,-10 204,-10"/>
<text text-anchor="start" x="227.7251" y="-15.4" font-family="sans-serif" font-size="14.00" fill="#000000"> &#160;Module</text>
<polygon fill="#80b1d3" stroke="transparent" points="290,-10 290,-30 310,-30 310,-10 290,-10"/>
<text text-anchor="start" x="313.7812" y="-15.4" font-family="sans-serif" font-size="14.00" fill="#000000"> &#160;Bootstrap</text>
<polygon fill="#fdb462" stroke="transparent" points="387,-10 387,-30 407,-30 407,-10 387,-10"/>
<text text-anchor="start" x="410.6732" y="-15.4" font-family="sans-serif" font-size="14.00" fill="#000000"> &#160;Providers</text>
<polygon fill="#fb8072" stroke="transparent" points="483,-10 483,-30 503,-30 503,-10 483,-10"/>
<text text-anchor="start" x="506.7258" y="-15.4" font-family="sans-serif" font-size="14.00" fill="#000000"> &#160;Exports</text>
<g id="clust1" class="cluster">
<title>cluster_UsersModule</title>
<polygon fill="none" stroke="#000000" stroke-dasharray="1,5" points="8,-70 8,-195 642,-195 642,-70 8,-70"/>
</g>
<g id="clust2" class="cluster">
<title>cluster_UsersModule_declarations</title>
<polygon fill="none" stroke="#000000" points="306,-78 306,-130 634,-130 634,-78 306,-78"/>
</g>
<g id="clust5" class="cluster">
<title>cluster_UsersModule_imports</title>
<polygon fill="none" stroke="#000000" points="16,-78 16,-130 298,-130 298,-78 16,-78"/>
</g>
<!-- ListUsersComponent -->
<g id="node1" class="node">
<title>ListUsersComponent</title>
<polygon fill="#ffffb3" stroke="#000000" points="626.4818,-122 491.5182,-122 491.5182,-86 626.4818,-86 626.4818,-122"/>
<text text-anchor="middle" x="559" y="-99.8" font-family="Times,serif" font-size="14.00" fill="#000000">ListUsersComponent</text>
</g>
<!-- UsersModule -->
<g id="node3" class="node">
<title>UsersModule</title>
<polygon fill="#8dd3c7" stroke="#000000" points="359.9218,-187 356.9218,-191 335.9218,-191 332.9218,-187 268.0782,-187 268.0782,-151 359.9218,-151 359.9218,-187"/>
<text text-anchor="middle" x="314" y="-164.8" font-family="Times,serif" font-size="14.00" fill="#000000">UsersModule</text>
</g>
<!-- ListUsersComponent&#45;&gt;UsersModule -->
<g id="edge1" class="edge">
<title>ListUsersComponent&#45;&gt;UsersModule</title>
<path fill="none" stroke="#000000" d="M559,-122.1061C559,-141.3391 559,-169 559,-169 559,-169 369.7952,-169 369.7952,-169"/>
<polygon fill="#000000" stroke="#000000" points="369.7953,-165.5001 359.7952,-169 369.7952,-172.5001 369.7953,-165.5001"/>
</g>
<!-- AdminThemeComponent -->
<g id="node2" class="node">
<title>AdminThemeComponent</title>
<polygon fill="#ffffb3" stroke="#000000" points="473.5926,-122 314.4074,-122 314.4074,-86 473.5926,-86 473.5926,-122"/>
<text text-anchor="middle" x="394" y="-99.8" font-family="Times,serif" font-size="14.00" fill="#000000">AdminThemeComponent</text>
</g>
<!-- AdminThemeComponent&#45;&gt;UsersModule -->
<g id="edge2" class="edge">
<title>AdminThemeComponent&#45;&gt;UsersModule</title>
<path fill="none" stroke="#000000" d="M337.0821,-122.1061C337.0821,-122.1061 337.0821,-140.991 337.0821,-140.991"/>
<polygon fill="#000000" stroke="#000000" points="333.5821,-140.9909 337.0821,-150.991 340.5821,-140.991 333.5821,-140.9909"/>
</g>
<!-- CommonModule -->
<g id="node4" class="node">
<title>CommonModule</title>
<polygon fill="#8dd3c7" stroke="#000000" points="289.6681,-122 286.6681,-126 265.6681,-126 262.6681,-122 178.3319,-122 178.3319,-86 289.6681,-86 289.6681,-122"/>
<text text-anchor="middle" x="234" y="-99.8" font-family="Times,serif" font-size="14.00" fill="#000000">CommonModule</text>
</g>
<!-- CommonModule&#45;&gt;UsersModule -->
<g id="edge3" class="edge">
<title>CommonModule&#45;&gt;UsersModule</title>
<path fill="none" stroke="#000000" d="M279.0617,-122.1061C279.0617,-122.1061 279.0617,-140.991 279.0617,-140.991"/>
<polygon fill="#000000" stroke="#000000" points="275.5618,-140.9909 279.0617,-150.991 282.5618,-140.991 275.5618,-140.9909"/>
</g>
<!-- UsersRoutingModule -->
<g id="node5" class="node">
<title>UsersRoutingModule</title>
<polygon fill="#8dd3c7" stroke="#000000" points="160.0394,-122 157.0394,-126 136.0394,-126 133.0394,-122 23.9606,-122 23.9606,-86 160.0394,-86 160.0394,-122"/>
<text text-anchor="middle" x="92" y="-99.8" font-family="Times,serif" font-size="14.00" fill="#000000">UsersRoutingModule</text>
</g>
<!-- UsersRoutingModule&#45;&gt;UsersModule -->
<g id="edge4" class="edge">
<title>UsersRoutingModule&#45;&gt;UsersModule</title>
<path fill="none" stroke="#000000" d="M92,-122.1061C92,-141.3391 92,-169 92,-169 92,-169 258.2706,-169 258.2706,-169"/>
<polygon fill="#000000" stroke="#000000" points="258.2707,-172.5001 268.2706,-169 258.2706,-165.5001 258.2707,-172.5001"/>
</g>
</g>
</svg>
