<?xml version="1.0" encoding="UTF-8" standalone="no"?>
<!DOCTYPE svg PUBLIC "-//W3C//DTD SVG 1.1//EN"
 "http://www.w3.org/Graphics/SVG/1.1/DTD/svg11.dtd">
<!-- Generated by graphviz version 5.0.0 (20220707.1540)
 -->
<!-- Title: dependencies Pages: 1 -->
<svg width="1942pt" height="174pt"
 viewBox="0.00 0.00 1942.00 173.80" xmlns="http://www.w3.org/2000/svg" xmlns:xlink="http://www.w3.org/1999/xlink">
<g id="graph0" class="graph" transform="scale(1 1) rotate(0) translate(4 169.8)">
<title>dependencies</title>
<polygon fill="white" stroke="transparent" points="-4,4 -4,-169.8 1938,-169.8 1938,4 -4,4"/>
<text text-anchor="middle" x="967" y="-8.2" font-family="sans-serif" font-size="14.00">dependencies</text>
<g id="clust1" class="cluster">
<title>cluster_UsersModule</title>
<polygon fill="none" stroke="black" stroke-dasharray="1,5" points="8,-32.8 8,-157.8 1926,-157.8 1926,-32.8 8,-32.8"/>
</g>
<g id="clust2" class="cluster">
<title>cluster_UsersModule_declarations</title>
<polygon fill="none" stroke="black" points="1326,-40.8 1326,-92.8 1918,-92.8 1918,-40.8 1326,-40.8"/>
</g>
<g id="clust7" class="cluster">
<title>cluster_UsersModule_imports</title>
<polygon fill="none" stroke="black" points="782,-40.8 782,-92.8 1318,-92.8 1318,-40.8 782,-40.8"/>
</g>
<g id="clust10" class="cluster">
<title>cluster_UsersModule_providers</title>
<polygon fill="none" stroke="black" points="16,-40.8 16,-92.8 774,-92.8 774,-40.8 16,-40.8"/>
</g>
<!-- ListUsersComponent -->
<g id="node1" class="node">
<title>ListUsersComponent</title>
<polygon fill="#ffffb3" stroke="black" points="1910.49,-84.8 1775.51,-84.8 1775.51,-48.8 1910.49,-48.8 1910.49,-84.8"/>
<text text-anchor="middle" x="1843" y="-62.6" font-family="Times,serif" font-size="14.00">ListUsersComponent</text>
</g>
<!-- UsersModule -->
<g id="node5" class="node">
<title>UsersModule</title>
<polygon fill="#8dd3c7" stroke="black" points="1228.94,-149.8 1225.94,-153.8 1204.94,-153.8 1201.94,-149.8 1137.06,-149.8 1137.06,-113.8 1228.94,-113.8 1228.94,-149.8"/>
<text text-anchor="middle" x="1183" y="-127.6" font-family="Times,serif" font-size="14.00">UsersModule</text>
</g>
<!-- ListUsersComponent&#45;&gt;UsersModule -->
<g id="edge1" class="edge">
<title>ListUsersComponent&#45;&gt;UsersModule</title>
<path fill="none" stroke="black" d="M1843,-84.81C1843,-107.29 1843,-142.8 1843,-142.8 1843,-142.8 1238.89,-142.8 1238.89,-142.8"/>
<polygon fill="black" stroke="black" points="1238.89,-139.3 1228.89,-142.8 1238.89,-146.3 1238.89,-139.3"/>
</g>
<!-- AdminThemeComponent -->
<g id="node2" class="node">
<title>AdminThemeComponent</title>
<polygon fill="#ffffb3" stroke="black" points="1757.59,-84.8 1598.41,-84.8 1598.41,-48.8 1757.59,-48.8 1757.59,-84.8"/>
<text text-anchor="middle" x="1678" y="-62.6" font-family="Times,serif" font-size="14.00">AdminThemeComponent</text>
</g>
<!-- AdminThemeComponent&#45;&gt;UsersModule -->
<g id="edge2" class="edge">
<title>AdminThemeComponent&#45;&gt;UsersModule</title>
<path fill="none" stroke="black" d="M1678,-84.93C1678,-105.37 1678,-135.8 1678,-135.8 1678,-135.8 1239.12,-135.8 1239.12,-135.8"/>
<polygon fill="black" stroke="black" points="1239.12,-132.3 1229.12,-135.8 1239.12,-139.3 1239.12,-132.3"/>
</g>
<!-- JobsComponent -->
<g id="node3" class="node">
<title>JobsComponent</title>
<polygon fill="#ffffb3" stroke="black" points="1580.23,-84.8 1473.77,-84.8 1473.77,-48.8 1580.23,-48.8 1580.23,-84.8"/>
<text text-anchor="middle" x="1527" y="-62.6" font-family="Times,serif" font-size="14.00">JobsComponent</text>
</g>
<!-- JobsComponent&#45;&gt;UsersModule -->
<g id="edge3" class="edge">
<title>JobsComponent&#45;&gt;UsersModule</title>
<path fill="none" stroke="black" d="M1527,-85.07C1527,-103.36 1527,-128.8 1527,-128.8 1527,-128.8 1239.04,-128.8 1239.04,-128.8"/>
<polygon fill="black" stroke="black" points="1239.04,-125.3 1229.04,-128.8 1239.04,-132.3 1239.04,-125.3"/>
</g>
<!-- HeaderComponent -->
<g id="node4" class="node">
<title>HeaderComponent</title>
<polygon fill="#ffffb3" stroke="black" points="1455.75,-84.8 1334.25,-84.8 1334.25,-48.8 1455.75,-48.8 1455.75,-84.8"/>
<text text-anchor="middle" x="1395" y="-62.6" font-family="Times,serif" font-size="14.00">HeaderComponent</text>
</g>
<!-- HeaderComponent&#45;&gt;UsersModule -->
<g id="edge4" class="edge">
<title>HeaderComponent&#45;&gt;UsersModule</title>
<path fill="none" stroke="black" d="M1395,-84.81C1395,-100.85 1395,-121.8 1395,-121.8 1395,-121.8 1238.74,-121.8 1238.74,-121.8"/>
<polygon fill="black" stroke="black" points="1238.74,-118.3 1228.74,-121.8 1238.74,-125.3 1238.74,-118.3"/>
</g>
<!-- CommonModule -->
<g id="node6" class="node">
<title>CommonModule</title>
<polygon fill="#8dd3c7" stroke="black" points="1309.67,-84.8 1306.67,-88.8 1285.67,-88.8 1282.67,-84.8 1198.33,-84.8 1198.33,-48.8 1309.67,-48.8 1309.67,-84.8"/>
<text text-anchor="middle" x="1254" y="-62.6" font-family="Times,serif" font-size="14.00">CommonModule</text>
</g>
<!-- CommonModule&#45;&gt;UsersModule -->
<g id="edge5" class="edge">
<title>CommonModule&#45;&gt;UsersModule</title>
<path fill="none" stroke="black" d="M1213.44,-84.91C1213.44,-84.91 1213.44,-103.79 1213.44,-103.79"/>
<polygon fill="black" stroke="black" points="1209.94,-103.79 1213.44,-113.79 1216.94,-103.79 1209.94,-103.79"/>
</g>
<!-- UsersRoutingModule -->
<g id="node7" class="node">
<title>UsersRoutingModule</title>
<polygon fill="#8dd3c7" stroke="black" points="1180.05,-84.8 1177.05,-88.8 1156.05,-88.8 1153.05,-84.8 1043.95,-84.8 1043.95,-48.8 1180.05,-48.8 1180.05,-84.8"/>
<text text-anchor="middle" x="1112" y="-62.6" font-family="Times,serif" font-size="14.00">UsersRoutingModule</text>
</g>
<!-- UsersRoutingModule&#45;&gt;UsersModule -->
<g id="edge6" class="edge">
<title>UsersRoutingModule&#45;&gt;UsersModule</title>
<path fill="none" stroke="black" d="M1158.78,-84.91C1158.78,-84.91 1158.78,-103.79 1158.78,-103.79"/>
<polygon fill="black" stroke="black" points="1155.28,-103.79 1158.78,-113.79 1162.28,-103.79 1155.28,-103.79"/>
</g>
<!-- SharedModule -->
<g id="node8" class="node">
<title>SharedModule</title>
<polygon fill="#8dd3c7" stroke="black" points="1026.43,-84.8 1023.43,-88.8 1002.43,-88.8 999.43,-84.8 927.57,-84.8 927.57,-48.8 1026.43,-48.8 1026.43,-84.8"/>
<text text-anchor="middle" x="977" y="-62.6" font-family="Times,serif" font-size="14.00">SharedModule</text>
</g>
<!-- SharedModule&#45;&gt;UsersModule -->
<g id="edge7" class="edge">
<title>SharedModule&#45;&gt;UsersModule</title>
<path fill="none" stroke="black" d="M977,-84.81C977,-100.85 977,-121.8 977,-121.8 977,-121.8 1127.28,-121.8 1127.28,-121.8"/>
<polygon fill="black" stroke="black" points="1127.28,-125.3 1137.28,-121.8 1127.28,-118.3 1127.28,-125.3"/>
</g>
<!-- MatDialogModule -->
<g id="node9" class="node">
<title>MatDialogModule</title>
<polygon fill="#8dd3c7" stroke="black" points="910.21,-84.8 907.21,-88.8 886.21,-88.8 883.21,-84.8 789.79,-84.8 789.79,-48.8 910.21,-48.8 910.21,-84.8"/>
<text text-anchor="middle" x="850" y="-62.6" font-family="Times,serif" font-size="14.00">MatDialogModule</text>
</g>
<!-- MatDialogModule&#45;&gt;UsersModule -->
<g id="edge8" class="edge">
<title>MatDialogModule&#45;&gt;UsersModule</title>
<path fill="none" stroke="black" d="M850,-85.07C850,-103.36 850,-128.8 850,-128.8 850,-128.8 1127.05,-128.8 1127.05,-128.8"/>
<polygon fill="black" stroke="black" points="1127.05,-132.3 1137.05,-128.8 1127.05,-125.3 1127.05,-132.3"/>
</g>
<!-- { provide: MAT_DIALOG_DATA, useValue: &#160;} -->
<g id="node10" class="node">
<title>{ provide: MAT_DIALOG_DATA, useValue: &#160;}</title>
<ellipse fill="#fdb462" stroke="black" cx="565" cy="-66.8" rx="200.57" ry="18"/>
<text text-anchor="middle" x="565" y="-62.6" font-family="Times,serif" font-size="14.00">{ provide: MAT_DIALOG_DATA, useValue: &#160;}</text>
</g>
<!-- { provide: MAT_DIALOG_DATA, useValue: &#160;}&#45;&gt;UsersModule -->
<g id="edge9" class="edge">
<title>{ provide: MAT_DIALOG_DATA, useValue: &#160;}&#45;&gt;UsersModule</title>
<path fill="none" stroke="black" d="M565,-84.93C565,-105.37 565,-135.8 565,-135.8 565,-135.8 1127.05,-135.8 1127.05,-135.8"/>
<polygon fill="black" stroke="black" points="1127.05,-139.3 1137.05,-135.8 1127.05,-132.3 1127.05,-139.3"/>
</g>
<!-- { provide: MatDialogRef, useValue: &#160;} -->
<g id="node11" class="node">
<title>{ provide: MatDialogRef, useValue: &#160;}</title>
<ellipse fill="#fdb462" stroke="black" cx="185" cy="-66.8" rx="161.24" ry="18"/>
<text text-anchor="middle" x="185" y="-62.6" font-family="Times,serif" font-size="14.00">{ provide: MatDialogRef, useValue: &#160;}</text>
</g>
<!-- { provide: MatDialogRef, useValue: &#160;}&#45;&gt;UsersModule -->
<g id="edge10" class="edge">
<title>{ provide: MatDialogRef, useValue: &#160;}&#45;&gt;UsersModule</title>
<path fill="none" stroke="black" d="M185,-84.81C185,-107.29 185,-142.8 185,-142.8 185,-142.8 1127.2,-142.8 1127.2,-142.8"/>
<polygon fill="black" stroke="black" points="1127.2,-146.3 1137.2,-142.8 1127.2,-139.3 1127.2,-146.3"/>
</g>
</g>
</svg>
