<?xml version="1.0" encoding="UTF-8" standalone="no"?>
<!DOCTYPE svg PUBLIC "-//W3C//DTD SVG 1.1//EN"
 "http://www.w3.org/Graphics/SVG/1.1/DTD/svg11.dtd">
<!-- Generated by graphviz version 5.0.0 (20220707.1540)
 -->
<!-- Title: dependencies Pages: 1 -->
<svg width="448pt" height="174pt"
 viewBox="0.00 0.00 448.00 173.80" xmlns="http://www.w3.org/2000/svg" xmlns:xlink="http://www.w3.org/1999/xlink">
<g id="graph0" class="graph" transform="scale(1 1) rotate(0) translate(4 169.8)">
<title>dependencies</title>
<polygon fill="white" stroke="transparent" points="-4,4 -4,-169.8 444,-169.8 444,4 -4,4"/>
<text text-anchor="middle" x="220" y="-8.2" font-family="sans-serif" font-size="14.00">dependencies</text>
<g id="clust1" class="cluster">
<title>cluster_DialogModule</title>
<polygon fill="none" stroke="black" stroke-dasharray="1,5" points="8,-32.8 8,-157.8 432,-157.8 432,-32.8 8,-32.8"/>
</g>
<g id="clust2" class="cluster">
<title>cluster_DialogModule_declarations</title>
<polygon fill="none" stroke="black" points="152,-40.8 152,-92.8 424,-92.8 424,-40.8 152,-40.8"/>
</g>
<g id="clust5" class="cluster">
<title>cluster_DialogModule_imports</title>
<polygon fill="none" stroke="black" points="16,-40.8 16,-92.8 144,-92.8 144,-40.8 16,-40.8"/>
</g>
<!-- DialogComponent -->
<g id="node1" class="node">
<title>DialogComponent</title>
<polygon fill="#ffffb3" stroke="black" points="415.94,-84.8 296.06,-84.8 296.06,-48.8 415.94,-48.8 415.94,-84.8"/>
<text text-anchor="middle" x="356" y="-62.6" font-family="Times,serif" font-size="14.00">DialogComponent</text>
</g>
<!-- DialogModule -->
<g id="node3" class="node">
<title>DialogModule</title>
<polygon fill="#8dd3c7" stroke="black" points="267.66,-149.8 264.66,-153.8 243.66,-153.8 240.66,-149.8 170.34,-149.8 170.34,-113.8 267.66,-113.8 267.66,-149.8"/>
<text text-anchor="middle" x="219" y="-127.6" font-family="Times,serif" font-size="14.00">DialogModule</text>
</g>
<!-- DialogComponent&#45;&gt;DialogModule -->
<g id="edge1" class="edge">
<title>DialogComponent&#45;&gt;DialogModule</title>
<path fill="none" stroke="black" d="M356,-84.91C356,-104.14 356,-131.8 356,-131.8 356,-131.8 277.69,-131.8 277.69,-131.8"/>
<polygon fill="black" stroke="black" points="277.69,-128.3 267.69,-131.8 277.69,-135.3 277.69,-128.3"/>
</g>
<!-- InsertionDirective -->
<g id="node2" class="node">
<title>InsertionDirective</title>
<polygon fill="#ffffb3" stroke="black" points="277.85,-84.8 160.15,-84.8 160.15,-48.8 277.85,-48.8 277.85,-84.8"/>
<text text-anchor="middle" x="219" y="-62.6" font-family="Times,serif" font-size="14.00">InsertionDirective</text>
</g>
<!-- InsertionDirective&#45;&gt;DialogModule -->
<g id="edge2" class="edge">
<title>InsertionDirective&#45;&gt;DialogModule</title>
<path fill="none" stroke="black" d="M219,-84.91C219,-84.91 219,-103.79 219,-103.79"/>
<polygon fill="black" stroke="black" points="215.5,-103.79 219,-113.79 222.5,-103.79 215.5,-103.79"/>
</g>
<!-- CommonModule -->
<g id="node4" class="node">
<title>CommonModule</title>
<polygon fill="#8dd3c7" stroke="black" points="135.67,-84.8 132.67,-88.8 111.67,-88.8 108.67,-84.8 24.33,-84.8 24.33,-48.8 135.67,-48.8 135.67,-84.8"/>
<text text-anchor="middle" x="80" y="-62.6" font-family="Times,serif" font-size="14.00">CommonModule</text>
</g>
<!-- CommonModule&#45;&gt;DialogModule -->
<g id="edge3" class="edge">
<title>CommonModule&#45;&gt;DialogModule</title>
<path fill="none" stroke="black" d="M80,-84.91C80,-104.14 80,-131.8 80,-131.8 80,-131.8 159.99,-131.8 159.99,-131.8"/>
<polygon fill="black" stroke="black" points="159.99,-135.3 169.99,-131.8 159.99,-128.3 159.99,-135.3"/>
</g>
</g>
</svg>
