<?xml version="1.0" encoding="UTF-8" standalone="no"?>
<!DOCTYPE svg PUBLIC "-//W3C//DTD SVG 1.1//EN"
 "http://www.w3.org/Graphics/SVG/1.1/DTD/svg11.dtd">
<!-- Generated by graphviz version 5.0.0 (20220707.1540)
 -->
<!-- Title: dependencies Pages: 1 -->
<svg width="2232pt" height="312pt"
 viewBox="0.00 0.00 2232.00 311.80" xmlns="http://www.w3.org/2000/svg" xmlns:xlink="http://www.w3.org/1999/xlink">
<g id="graph0" class="graph" transform="scale(1 1) rotate(0) translate(4 307.8)">
<title>dependencies</title>
<polygon fill="white" stroke="transparent" points="-4,4 -4,-307.8 2228,-307.8 2228,4 -4,4"/>
<text text-anchor="middle" x="1112" y="-8.2" font-family="sans-serif" font-size="14.00">dependencies</text>
<g id="clust1" class="cluster">
<title>cluster_FormsOwnModule</title>
<polygon fill="none" stroke="black" stroke-dasharray="1,5" points="8,-32.8 8,-295.8 2216,-295.8 2216,-32.8 8,-32.8"/>
</g>
<g id="clust2" class="cluster">
<title>cluster_FormsOwnModule_declarations</title>
<polygon fill="none" stroke="black" points="16,-105.8 16,-157.8 270,-157.8 270,-105.8 16,-105.8"/>
</g>
<g id="clust5" class="cluster">
<title>cluster_FormsOwnModule_imports</title>
<polygon fill="none" stroke="black" points="278,-105.8 278,-157.8 2208,-157.8 2208,-105.8 278,-105.8"/>
</g>
<g id="clust4" class="cluster">
<title>cluster_FormsOwnModule_DateComponent_providers</title>
<polygon fill="none" stroke="black" points="16,-40.8 16,-92.8 776,-92.8 776,-40.8 16,-40.8"/>
</g>
<g id="clust6" class="cluster">
<title>cluster_FormsOwnModule_exports</title>
<polygon fill="none" stroke="black" points="1033,-235.8 1033,-287.8 1165,-287.8 1165,-235.8 1033,-235.8"/>
</g>
<!-- FormComponent -->
<g id="node1" class="node">
<title>FormComponent</title>
<polygon fill="#ffffb3" stroke="black" points="261.67,-149.8 150.33,-149.8 150.33,-113.8 261.67,-113.8 261.67,-149.8"/>
<text text-anchor="middle" x="206" y="-127.6" font-family="Times,serif" font-size="14.00">FormComponent</text>
</g>
<!-- FormsOwnModule -->
<g id="node3" class="node">
<title>FormsOwnModule</title>
<polygon fill="#8dd3c7" stroke="black" points="1160.06,-214.8 1157.06,-218.8 1136.06,-218.8 1133.06,-214.8 1037.94,-214.8 1037.94,-178.8 1160.06,-178.8 1160.06,-214.8"/>
<text text-anchor="middle" x="1099" y="-192.6" font-family="Times,serif" font-size="14.00">FormsOwnModule</text>
</g>
<!-- FormComponent&#45;&gt;FormsOwnModule -->
<g id="edge1" class="edge">
<title>FormComponent&#45;&gt;FormsOwnModule</title>
<path fill="none" stroke="black" d="M206,-149.84C206,-171.46 206,-204.8 206,-204.8 206,-204.8 1027.62,-204.8 1027.62,-204.8"/>
<polygon fill="black" stroke="black" points="1027.62,-208.3 1037.62,-204.8 1027.62,-201.3 1027.62,-208.3"/>
</g>
<!-- DateComponent -->
<g id="node2" class="node">
<title>DateComponent</title>
<polygon fill="#ffffb3" stroke="black" points="131.76,-149.8 24.24,-149.8 24.24,-113.8 131.76,-113.8 131.76,-149.8"/>
<text text-anchor="middle" x="78" y="-127.6" font-family="Times,serif" font-size="14.00">DateComponent</text>
</g>
<!-- DateComponent&#45;&gt;FormsOwnModule -->
<g id="edge2" class="edge">
<title>DateComponent&#45;&gt;FormsOwnModule</title>
<path fill="none" stroke="black" d="M78,-149.89C78,-172.93 78,-209.8 78,-209.8 78,-209.8 1027.81,-209.8 1027.81,-209.8"/>
<polygon fill="black" stroke="black" points="1027.81,-213.3 1037.81,-209.8 1027.81,-206.3 1027.81,-213.3"/>
</g>
<!-- FormComponent  -->
<g id="node17" class="node">
<title>FormComponent </title>
<polygon fill="#fb8072" stroke="black" points="1156.67,-279.8 1041.33,-279.8 1041.33,-243.8 1156.67,-243.8 1156.67,-279.8"/>
<text text-anchor="middle" x="1099" y="-257.6" font-family="Times,serif" font-size="14.00">FormComponent </text>
</g>
<!-- FormsOwnModule&#45;&gt;FormComponent  -->
<g id="edge16" class="edge">
<title>FormsOwnModule&#45;&gt;FormComponent </title>
<path fill="none" stroke="black" stroke-dasharray="5,2" d="M1099,-214.91C1099,-214.91 1099,-233.79 1099,-233.79"/>
<polygon fill="black" stroke="black" points="1095.5,-233.79 1099,-243.79 1102.5,-233.79 1095.5,-233.79"/>
</g>
<!-- { provide: NGX_MAT_DATE_FORMATS, useValue: CUSTOM_MOMENT_FORMATS } -->
<g id="node4" class="node">
<title>{ provide: NGX_MAT_DATE_FORMATS, useValue: CUSTOM_MOMENT_FORMATS }</title>
<ellipse fill="#fdb462" stroke="black" cx="396" cy="-66.8" rx="372.01" ry="18"/>
<text text-anchor="middle" x="396" y="-62.6" font-family="Times,serif" font-size="14.00">{ provide: NGX_MAT_DATE_FORMATS, useValue: CUSTOM_MOMENT_FORMATS }</text>
</g>
<!-- { provide: NGX_MAT_DATE_FORMATS, useValue: CUSTOM_MOMENT_FORMATS }&#45;&gt;DateComponent -->
<g id="edge3" class="edge">
<title>{ provide: NGX_MAT_DATE_FORMATS, useValue: CUSTOM_MOMENT_FORMATS }&#45;&gt;DateComponent</title>
<path fill="none" stroke="black" d="M78,-76.39C78,-76.39 78,-103.55 78,-103.55"/>
<polygon fill="black" stroke="black" points="74.5,-103.55 78,-113.55 81.5,-103.55 74.5,-103.55"/>
</g>
<!-- CommonModule -->
<g id="node5" class="node">
<title>CommonModule</title>
<polygon fill="#8dd3c7" stroke="black" points="2199.67,-149.8 2196.67,-153.8 2175.67,-153.8 2172.67,-149.8 2088.33,-149.8 2088.33,-113.8 2199.67,-113.8 2199.67,-149.8"/>
<text text-anchor="middle" x="2144" y="-127.6" font-family="Times,serif" font-size="14.00">CommonModule</text>
</g>
<!-- CommonModule&#45;&gt;FormsOwnModule -->
<g id="edge4" class="edge">
<title>CommonModule&#45;&gt;FormsOwnModule</title>
<path fill="none" stroke="black" d="M2144,-149.89C2144,-172.93 2144,-209.8 2144,-209.8 2144,-209.8 1170.08,-209.8 1170.08,-209.8"/>
<polygon fill="black" stroke="black" points="1170.08,-206.3 1160.08,-209.8 1170.08,-213.3 1170.08,-206.3"/>
</g>
<!-- ReactiveFormsModule -->
<g id="node6" class="node">
<title>ReactiveFormsModule</title>
<polygon fill="#8dd3c7" stroke="black" points="2070.31,-149.8 2067.31,-153.8 2046.31,-153.8 2043.31,-149.8 1925.69,-149.8 1925.69,-113.8 2070.31,-113.8 2070.31,-149.8"/>
<text text-anchor="middle" x="1998" y="-127.6" font-family="Times,serif" font-size="14.00">ReactiveFormsModule</text>
</g>
<!-- ReactiveFormsModule&#45;&gt;FormsOwnModule -->
<g id="edge5" class="edge">
<title>ReactiveFormsModule&#45;&gt;FormsOwnModule</title>
<path fill="none" stroke="black" d="M1998,-149.84C1998,-171.46 1998,-204.8 1998,-204.8 1998,-204.8 1170.09,-204.8 1170.09,-204.8"/>
<polygon fill="black" stroke="black" points="1170.09,-201.3 1160.09,-204.8 1170.09,-208.3 1170.09,-201.3"/>
</g>
<!-- MatInputModule -->
<g id="node7" class="node">
<title>MatInputModule</title>
<polygon fill="#8dd3c7" stroke="black" points="1907.66,-149.8 1904.66,-153.8 1883.66,-153.8 1880.66,-149.8 1796.34,-149.8 1796.34,-113.8 1907.66,-113.8 1907.66,-149.8"/>
<text text-anchor="middle" x="1852" y="-127.6" font-family="Times,serif" font-size="14.00">MatInputModule</text>
</g>
<!-- MatInputModule&#45;&gt;FormsOwnModule -->
<g id="edge6" class="edge">
<title>MatInputModule&#45;&gt;FormsOwnModule</title>
<path fill="none" stroke="black" d="M1852,-150.02C1852,-170.17 1852,-199.8 1852,-199.8 1852,-199.8 1170.3,-199.8 1170.3,-199.8"/>
<polygon fill="black" stroke="black" points="1170.3,-196.3 1160.3,-199.8 1170.3,-203.3 1170.3,-196.3"/>
</g>
<!-- MatDatepickerModule -->
<g id="node8" class="node">
<title>MatDatepickerModule</title>
<polygon fill="#8dd3c7" stroke="black" points="1777.51,-149.8 1774.51,-153.8 1753.51,-153.8 1750.51,-149.8 1634.49,-149.8 1634.49,-113.8 1777.51,-113.8 1777.51,-149.8"/>
<text text-anchor="middle" x="1706" y="-127.6" font-family="Times,serif" font-size="14.00">MatDatepickerModule</text>
</g>
<!-- MatDatepickerModule&#45;&gt;FormsOwnModule -->
<g id="edge7" class="edge">
<title>MatDatepickerModule&#45;&gt;FormsOwnModule</title>
<path fill="none" stroke="black" d="M1706,-150.02C1706,-168.63 1706,-194.8 1706,-194.8 1706,-194.8 1170.26,-194.8 1170.26,-194.8"/>
<polygon fill="black" stroke="black" points="1170.26,-191.3 1160.26,-194.8 1170.26,-198.3 1170.26,-191.3"/>
</g>
<!-- MatNativeDateModule -->
<g id="node9" class="node">
<title>MatNativeDateModule</title>
<polygon fill="#8dd3c7" stroke="black" points="1615.85,-149.8 1612.85,-153.8 1591.85,-153.8 1588.85,-149.8 1470.15,-149.8 1470.15,-113.8 1615.85,-113.8 1615.85,-149.8"/>
<text text-anchor="middle" x="1543" y="-127.6" font-family="Times,serif" font-size="14.00">MatNativeDateModule</text>
</g>
<!-- MatNativeDateModule&#45;&gt;FormsOwnModule -->
<g id="edge8" class="edge">
<title>MatNativeDateModule&#45;&gt;FormsOwnModule</title>
<path fill="none" stroke="black" d="M1543,-149.83C1543,-166.86 1543,-189.8 1543,-189.8 1543,-189.8 1170.27,-189.8 1170.27,-189.8"/>
<polygon fill="black" stroke="black" points="1170.27,-186.3 1160.27,-189.8 1170.27,-193.3 1170.27,-186.3"/>
</g>
<!-- MatCheckboxModule -->
<g id="node10" class="node">
<title>MatCheckboxModule</title>
<polygon fill="#8dd3c7" stroke="black" points="1452.37,-149.8 1449.37,-153.8 1428.37,-153.8 1425.37,-149.8 1313.63,-149.8 1313.63,-113.8 1452.37,-113.8 1452.37,-149.8"/>
<text text-anchor="middle" x="1383" y="-127.6" font-family="Times,serif" font-size="14.00">MatCheckboxModule</text>
</g>
<!-- MatCheckboxModule&#45;&gt;FormsOwnModule -->
<g id="edge9" class="edge">
<title>MatCheckboxModule&#45;&gt;FormsOwnModule</title>
<path fill="none" stroke="black" d="M1383,-150.04C1383,-165.37 1383,-184.8 1383,-184.8 1383,-184.8 1170.27,-184.8 1170.27,-184.8"/>
<polygon fill="black" stroke="black" points="1170.27,-181.3 1160.27,-184.8 1170.27,-188.3 1170.27,-181.3"/>
</g>
<!-- NgxMatDatetimePickerModule -->
<g id="node11" class="node">
<title>NgxMatDatetimePickerModule</title>
<polygon fill="#8dd3c7" stroke="black" points="1295.79,-149.8 1292.79,-153.8 1271.79,-153.8 1268.79,-149.8 1102.21,-149.8 1102.21,-113.8 1295.79,-113.8 1295.79,-149.8"/>
<text text-anchor="middle" x="1199" y="-127.6" font-family="Times,serif" font-size="14.00">NgxMatDatetimePickerModule</text>
</g>
<!-- NgxMatDatetimePickerModule&#45;&gt;FormsOwnModule -->
<g id="edge10" class="edge">
<title>NgxMatDatetimePickerModule&#45;&gt;FormsOwnModule</title>
<path fill="none" stroke="black" d="M1131.32,-149.91C1131.32,-149.91 1131.32,-168.79 1131.32,-168.79"/>
<polygon fill="black" stroke="black" points="1127.82,-168.79 1131.32,-178.79 1134.82,-168.79 1127.82,-168.79"/>
</g>
<!-- NgxMatNativeDateModule -->
<g id="node12" class="node">
<title>NgxMatNativeDateModule</title>
<polygon fill="#8dd3c7" stroke="black" points="1083.96,-149.8 1080.96,-153.8 1059.96,-153.8 1056.96,-149.8 914.04,-149.8 914.04,-113.8 1083.96,-113.8 1083.96,-149.8"/>
<text text-anchor="middle" x="999" y="-127.6" font-family="Times,serif" font-size="14.00">NgxMatNativeDateModule</text>
</g>
<!-- NgxMatNativeDateModule&#45;&gt;FormsOwnModule -->
<g id="edge11" class="edge">
<title>NgxMatNativeDateModule&#45;&gt;FormsOwnModule</title>
<path fill="none" stroke="black" d="M1060.85,-149.91C1060.85,-149.91 1060.85,-168.79 1060.85,-168.79"/>
<polygon fill="black" stroke="black" points="1057.35,-168.79 1060.85,-178.79 1064.35,-168.79 1057.35,-168.79"/>
</g>
<!-- NgxMatTimepickerModule -->
<g id="node13" class="node">
<title>NgxMatTimepickerModule</title>
<polygon fill="#8dd3c7" stroke="black" points="896.24,-149.8 893.24,-153.8 872.24,-153.8 869.24,-149.8 725.76,-149.8 725.76,-113.8 896.24,-113.8 896.24,-149.8"/>
<text text-anchor="middle" x="811" y="-127.6" font-family="Times,serif" font-size="14.00">NgxMatTimepickerModule</text>
</g>
<!-- NgxMatTimepickerModule&#45;&gt;FormsOwnModule -->
<g id="edge12" class="edge">
<title>NgxMatTimepickerModule&#45;&gt;FormsOwnModule</title>
<path fill="none" stroke="black" d="M811,-150.04C811,-165.37 811,-184.8 811,-184.8 811,-184.8 1027.92,-184.8 1027.92,-184.8"/>
<polygon fill="black" stroke="black" points="1027.92,-188.3 1037.92,-184.8 1027.92,-181.3 1027.92,-188.3"/>
</g>
<!-- NgxMatMomentModule -->
<g id="node14" class="node">
<title>NgxMatMomentModule</title>
<polygon fill="#8dd3c7" stroke="black" points="707.66,-149.8 704.66,-153.8 683.66,-153.8 680.66,-149.8 554.34,-149.8 554.34,-113.8 707.66,-113.8 707.66,-149.8"/>
<text text-anchor="middle" x="631" y="-127.6" font-family="Times,serif" font-size="14.00">NgxMatMomentModule</text>
</g>
<!-- NgxMatMomentModule&#45;&gt;FormsOwnModule -->
<g id="edge13" class="edge">
<title>NgxMatMomentModule&#45;&gt;FormsOwnModule</title>
<path fill="none" stroke="black" d="M631,-149.83C631,-166.86 631,-189.8 631,-189.8 631,-189.8 1027.82,-189.8 1027.82,-189.8"/>
<polygon fill="black" stroke="black" points="1027.82,-193.3 1037.82,-189.8 1027.82,-186.3 1027.82,-193.3"/>
</g>
<!-- MatSelectModule -->
<g id="node15" class="node">
<title>MatSelectModule</title>
<polygon fill="#8dd3c7" stroke="black" points="536.31,-149.8 533.31,-153.8 512.31,-153.8 509.31,-149.8 419.69,-149.8 419.69,-113.8 536.31,-113.8 536.31,-149.8"/>
<text text-anchor="middle" x="478" y="-127.6" font-family="Times,serif" font-size="14.00">MatSelectModule</text>
</g>
<!-- MatSelectModule&#45;&gt;FormsOwnModule -->
<g id="edge14" class="edge">
<title>MatSelectModule&#45;&gt;FormsOwnModule</title>
<path fill="none" stroke="black" d="M478,-150.02C478,-168.63 478,-194.8 478,-194.8 478,-194.8 1027.76,-194.8 1027.76,-194.8"/>
<polygon fill="black" stroke="black" points="1027.76,-198.3 1037.76,-194.8 1027.76,-191.3 1027.76,-198.3"/>
</g>
<!-- MatRadioModule -->
<g id="node16" class="node">
<title>MatRadioModule</title>
<polygon fill="#8dd3c7" stroke="black" points="401.55,-149.8 398.55,-153.8 377.55,-153.8 374.55,-149.8 286.45,-149.8 286.45,-113.8 401.55,-113.8 401.55,-149.8"/>
<text text-anchor="middle" x="344" y="-127.6" font-family="Times,serif" font-size="14.00">MatRadioModule</text>
</g>
<!-- MatRadioModule&#45;&gt;FormsOwnModule -->
<g id="edge15" class="edge">
<title>MatRadioModule&#45;&gt;FormsOwnModule</title>
<path fill="none" stroke="black" d="M344,-150.02C344,-170.17 344,-199.8 344,-199.8 344,-199.8 1027.85,-199.8 1027.85,-199.8"/>
<polygon fill="black" stroke="black" points="1027.85,-203.3 1037.85,-199.8 1027.85,-196.3 1027.85,-203.3"/>
</g>
</g>
</svg>
