<?xml version="1.0" encoding="UTF-8" standalone="no"?>
<!DOCTYPE svg PUBLIC "-//W3C//DTD SVG 1.1//EN"
 "http://www.w3.org/Graphics/SVG/1.1/DTD/svg11.dtd">
<!-- Generated by graphviz version 5.0.0 (20220707.1540)
 -->
<!-- Title: dependencies Pages: 1 -->
<svg width="2070pt" height="247pt"
 viewBox="0.00 0.00 2070.00 246.80" xmlns="http://www.w3.org/2000/svg" xmlns:xlink="http://www.w3.org/1999/xlink">
<g id="graph0" class="graph" transform="scale(1 1) rotate(0) translate(4 242.8)">
<title>dependencies</title>
<polygon fill="white" stroke="transparent" points="-4,4 -4,-242.8 2066,-242.8 2066,4 -4,4"/>
<text text-anchor="middle" x="1031" y="-8.2" font-family="sans-serif" font-size="14.00">dependencies</text>
<g id="clust1" class="cluster">
<title>cluster_AppModule</title>
<polygon fill="none" stroke="black" stroke-dasharray="1,5" points="8,-32.8 8,-230.8 2054,-230.8 2054,-32.8 8,-32.8"/>
</g>
<g id="clust2" class="cluster">
<title>cluster_AppModule_declarations</title>
<polygon fill="none" stroke="black" points="1924,-40.8 1924,-92.8 2046,-92.8 2046,-40.8 1924,-40.8"/>
</g>
<g id="clust4" class="cluster">
<title>cluster_AppModule_imports</title>
<polygon fill="none" stroke="black" points="374,-40.8 374,-92.8 1916,-92.8 1916,-40.8 374,-40.8"/>
</g>
<g id="clust6" class="cluster">
<title>cluster_AppModule_bootstrap</title>
<polygon fill="none" stroke="black" points="1069,-170.8 1069,-222.8 1193,-222.8 1193,-170.8 1069,-170.8"/>
</g>
<g id="clust7" class="cluster">
<title>cluster_AppModule_providers</title>
<polygon fill="none" stroke="black" points="16,-40.8 16,-92.8 366,-92.8 366,-40.8 16,-40.8"/>
</g>
<!-- AppComponent -->
<g id="node1" class="node">
<title>AppComponent</title>
<polygon fill="#ffffb3" stroke="black" points="2037.94,-84.8 1932.06,-84.8 1932.06,-48.8 2037.94,-48.8 2037.94,-84.8"/>
<text text-anchor="middle" x="1985" y="-62.6" font-family="Times,serif" font-size="14.00">AppComponent</text>
</g>
<!-- AppModule -->
<g id="node2" class="node">
<title>AppModule</title>
<polygon fill="#8dd3c7" stroke="black" points="1172.66,-149.8 1169.66,-153.8 1148.66,-153.8 1145.66,-149.8 1089.34,-149.8 1089.34,-113.8 1172.66,-113.8 1172.66,-149.8"/>
<text text-anchor="middle" x="1131" y="-127.6" font-family="Times,serif" font-size="14.00">AppModule</text>
</g>
<!-- AppComponent&#45;&gt;AppModule -->
<g id="edge1" class="edge">
<title>AppComponent&#45;&gt;AppModule</title>
<path fill="none" stroke="black" d="M1985,-85.05C1985,-107.82 1985,-143.8 1985,-143.8 1985,-143.8 1182.77,-143.8 1182.77,-143.8"/>
<polygon fill="black" stroke="black" points="1182.77,-140.3 1172.77,-143.8 1182.77,-147.3 1182.77,-140.3"/>
</g>
<!-- AppComponent  -->
<g id="node12" class="node">
<title>AppComponent </title>
<polygon fill="#80b1d3" stroke="black" points="1185.44,-214.8 1076.56,-214.8 1076.56,-178.8 1185.44,-178.8 1185.44,-214.8"/>
<text text-anchor="middle" x="1131" y="-192.6" font-family="Times,serif" font-size="14.00">AppComponent </text>
</g>
<!-- AppModule&#45;&gt;AppComponent  -->
<g id="edge11" class="edge">
<title>AppModule&#45;&gt;AppComponent </title>
<path fill="none" stroke="black" stroke-dasharray="1,5" d="M1131,-149.91C1131,-149.91 1131,-168.79 1131,-168.79"/>
<polygon fill="black" stroke="black" points="1127.5,-168.79 1131,-178.79 1134.5,-168.79 1127.5,-168.79"/>
</g>
<!-- BrowserModule -->
<g id="node3" class="node">
<title>BrowserModule</title>
<polygon fill="#8dd3c7" stroke="black" points="1908.49,-84.8 1905.49,-88.8 1884.49,-88.8 1881.49,-84.8 1801.51,-84.8 1801.51,-48.8 1908.49,-48.8 1908.49,-84.8"/>
<text text-anchor="middle" x="1855" y="-62.6" font-family="Times,serif" font-size="14.00">BrowserModule</text>
</g>
<!-- BrowserModule&#45;&gt;AppModule -->
<g id="edge2" class="edge">
<title>BrowserModule&#45;&gt;AppModule</title>
<path fill="none" stroke="black" d="M1855,-85.08C1855,-106.12 1855,-137.8 1855,-137.8 1855,-137.8 1182.79,-137.8 1182.79,-137.8"/>
<polygon fill="black" stroke="black" points="1182.79,-134.3 1172.79,-137.8 1182.79,-141.3 1182.79,-134.3"/>
</g>
<!-- AppRoutingModule -->
<g id="node4" class="node">
<title>AppRoutingModule</title>
<polygon fill="#8dd3c7" stroke="black" points="1783.28,-84.8 1780.28,-88.8 1759.28,-88.8 1756.28,-84.8 1654.72,-84.8 1654.72,-48.8 1783.28,-48.8 1783.28,-84.8"/>
<text text-anchor="middle" x="1719" y="-62.6" font-family="Times,serif" font-size="14.00">AppRoutingModule</text>
</g>
<!-- AppRoutingModule&#45;&gt;AppModule -->
<g id="edge3" class="edge">
<title>AppRoutingModule&#45;&gt;AppModule</title>
<path fill="none" stroke="black" d="M1719,-84.91C1719,-104.14 1719,-131.8 1719,-131.8 1719,-131.8 1182.82,-131.8 1182.82,-131.8"/>
<polygon fill="black" stroke="black" points="1182.82,-128.3 1172.82,-131.8 1182.82,-135.3 1182.82,-128.3"/>
</g>
<!-- HttpClientModule -->
<g id="node5" class="node">
<title>HttpClientModule</title>
<polygon fill="#8dd3c7" stroke="black" points="1636.16,-84.8 1633.16,-88.8 1612.16,-88.8 1609.16,-84.8 1517.84,-84.8 1517.84,-48.8 1636.16,-48.8 1636.16,-84.8"/>
<text text-anchor="middle" x="1577" y="-62.6" font-family="Times,serif" font-size="14.00">HttpClientModule</text>
</g>
<!-- HttpClientModule&#45;&gt;AppModule -->
<g id="edge4" class="edge">
<title>HttpClientModule&#45;&gt;AppModule</title>
<path fill="none" stroke="black" d="M1577,-84.82C1577,-102.17 1577,-125.8 1577,-125.8 1577,-125.8 1182.96,-125.8 1182.96,-125.8"/>
<polygon fill="black" stroke="black" points="1182.96,-122.3 1172.96,-125.8 1182.96,-129.3 1182.96,-122.3"/>
</g>
<!-- AngularSvgIconModule.forRoot() -->
<g id="node6" class="node">
<title>AngularSvgIconModule.forRoot()</title>
<polygon fill="#8dd3c7" stroke="black" points="1499.47,-84.8 1496.47,-88.8 1475.47,-88.8 1472.47,-84.8 1290.53,-84.8 1290.53,-48.8 1499.47,-48.8 1499.47,-84.8"/>
<text text-anchor="middle" x="1395" y="-62.6" font-family="Times,serif" font-size="14.00">AngularSvgIconModule.forRoot()</text>
</g>
<!-- AngularSvgIconModule.forRoot()&#45;&gt;AppModule -->
<g id="edge5" class="edge">
<title>AngularSvgIconModule.forRoot()&#45;&gt;AppModule</title>
<path fill="none" stroke="black" d="M1395,-85.04C1395,-100.37 1395,-119.8 1395,-119.8 1395,-119.8 1182.83,-119.8 1182.83,-119.8"/>
<polygon fill="black" stroke="black" points="1182.83,-116.3 1172.83,-119.8 1182.83,-123.3 1182.83,-116.3"/>
</g>
<!-- StorageServiceModule -->
<g id="node7" class="node">
<title>StorageServiceModule</title>
<polygon fill="#8dd3c7" stroke="black" points="1273.3,-84.8 1270.3,-88.8 1249.3,-88.8 1246.3,-84.8 1128.7,-84.8 1128.7,-48.8 1273.3,-48.8 1273.3,-84.8"/>
<text text-anchor="middle" x="1201" y="-62.6" font-family="Times,serif" font-size="14.00">StorageServiceModule</text>
</g>
<!-- StorageServiceModule&#45;&gt;AppModule -->
<g id="edge6" class="edge">
<title>StorageServiceModule&#45;&gt;AppModule</title>
<path fill="none" stroke="black" d="M1150.84,-84.91C1150.84,-84.91 1150.84,-103.79 1150.84,-103.79"/>
<polygon fill="black" stroke="black" points="1147.34,-103.79 1150.84,-113.79 1154.34,-103.79 1147.34,-103.79"/>
</g>
<!-- SharedModule -->
<g id="node8" class="node">
<title>SharedModule</title>
<polygon fill="#8dd3c7" stroke="black" points="1111.43,-84.8 1108.43,-88.8 1087.43,-88.8 1084.43,-84.8 1012.57,-84.8 1012.57,-48.8 1111.43,-48.8 1111.43,-84.8"/>
<text text-anchor="middle" x="1062" y="-62.6" font-family="Times,serif" font-size="14.00">SharedModule</text>
</g>
<!-- SharedModule&#45;&gt;AppModule -->
<g id="edge7" class="edge">
<title>SharedModule&#45;&gt;AppModule</title>
<path fill="none" stroke="black" d="M1100.19,-84.91C1100.19,-84.91 1100.19,-103.79 1100.19,-103.79"/>
<polygon fill="black" stroke="black" points="1096.69,-103.79 1100.19,-113.79 1103.69,-103.79 1096.69,-103.79"/>
</g>
<!-- BrowserAnimationsModule -->
<g id="node9" class="node">
<title>BrowserAnimationsModule</title>
<polygon fill="#8dd3c7" stroke="black" points="995.32,-84.8 992.32,-88.8 971.32,-88.8 968.32,-84.8 822.68,-84.8 822.68,-48.8 995.32,-48.8 995.32,-84.8"/>
<text text-anchor="middle" x="909" y="-62.6" font-family="Times,serif" font-size="14.00">BrowserAnimationsModule</text>
</g>
<!-- BrowserAnimationsModule&#45;&gt;AppModule -->
<g id="edge8" class="edge">
<title>BrowserAnimationsModule&#45;&gt;AppModule</title>
<path fill="none" stroke="black" d="M909,-85.04C909,-100.37 909,-119.8 909,-119.8 909,-119.8 1079.24,-119.8 1079.24,-119.8"/>
<polygon fill="black" stroke="black" points="1079.24,-123.3 1089.24,-119.8 1079.24,-116.3 1079.24,-123.3"/>
</g>
<!-- StoreModule.forRoot(args) -->
<g id="node10" class="node">
<title>StoreModule.forRoot(args)</title>
<polygon fill="#8dd3c7" stroke="black" points="804.3,-84.8 801.3,-88.8 780.3,-88.8 777.3,-84.8 635.7,-84.8 635.7,-48.8 804.3,-48.8 804.3,-84.8"/>
<text text-anchor="middle" x="720" y="-62.6" font-family="Times,serif" font-size="14.00">StoreModule.forRoot(args)</text>
</g>
<!-- StoreModule.forRoot(args)&#45;&gt;AppModule -->
<g id="edge9" class="edge">
<title>StoreModule.forRoot(args)&#45;&gt;AppModule</title>
<path fill="none" stroke="black" d="M720,-84.82C720,-102.17 720,-125.8 720,-125.8 720,-125.8 1079.33,-125.8 1079.33,-125.8"/>
<polygon fill="black" stroke="black" points="1079.33,-129.3 1089.33,-125.8 1079.33,-122.3 1079.33,-129.3"/>
</g>
<!-- StoreDevtoolsModule.instrument(args) -->
<g id="node11" class="node">
<title>StoreDevtoolsModule.instrument(args)</title>
<polygon fill="#8dd3c7" stroke="black" points="617.69,-84.8 614.69,-88.8 593.69,-88.8 590.69,-84.8 382.31,-84.8 382.31,-48.8 617.69,-48.8 617.69,-84.8"/>
<text text-anchor="middle" x="500" y="-62.6" font-family="Times,serif" font-size="14.00">StoreDevtoolsModule.instrument(args)</text>
</g>
<!-- StoreDevtoolsModule.instrument(args)&#45;&gt;AppModule -->
<g id="edge10" class="edge">
<title>StoreDevtoolsModule.instrument(args)&#45;&gt;AppModule</title>
<path fill="none" stroke="black" d="M500,-84.91C500,-104.14 500,-131.8 500,-131.8 500,-131.8 1079.11,-131.8 1079.11,-131.8"/>
<polygon fill="black" stroke="black" points="1079.11,-135.3 1089.11,-131.8 1079.11,-128.3 1079.11,-135.3"/>
</g>
<!-- LocalStorageService -->
<g id="node13" class="node">
<title>LocalStorageService</title>
<ellipse fill="#fdb462" stroke="black" cx="267" cy="-66.8" rx="91.45" ry="18"/>
<text text-anchor="middle" x="267" y="-62.6" font-family="Times,serif" font-size="14.00">LocalStorageService</text>
</g>
<!-- LocalStorageService&#45;&gt;AppModule -->
<g id="edge12" class="edge">
<title>LocalStorageService&#45;&gt;AppModule</title>
<path fill="none" stroke="black" d="M267,-85.08C267,-106.12 267,-137.8 267,-137.8 267,-137.8 1079.33,-137.8 1079.33,-137.8"/>
<polygon fill="black" stroke="black" points="1079.33,-141.3 1089.33,-137.8 1079.33,-134.3 1079.33,-141.3"/>
</g>
<!-- CRUDService -->
<g id="node14" class="node">
<title>CRUDService</title>
<ellipse fill="#fdb462" stroke="black" cx="91" cy="-66.8" rx="66.65" ry="18"/>
<text text-anchor="middle" x="91" y="-62.6" font-family="Times,serif" font-size="14.00">CRUDService</text>
</g>
<!-- CRUDService&#45;&gt;AppModule -->
<g id="edge13" class="edge">
<title>CRUDService&#45;&gt;AppModule</title>
<path fill="none" stroke="black" d="M91,-85.05C91,-107.82 91,-143.8 91,-143.8 91,-143.8 1079.27,-143.8 1079.27,-143.8"/>
<polygon fill="black" stroke="black" points="1079.27,-147.3 1089.27,-143.8 1079.27,-140.3 1079.27,-147.3"/>
</g>
</g>
</svg>
