<?xml version="1.0" encoding="UTF-8" standalone="no"?>
<!DOCTYPE svg PUBLIC "-//W3C//DTD SVG 1.1//EN"
 "http://www.w3.org/Graphics/SVG/1.1/DTD/svg11.dtd">
<!-- Generated by graphviz version 2.40.1 (20161225.0304)
 -->
<!-- Title: dependencies Pages: 1 -->
<svg width="1429pt" height="290pt"
 viewBox="0.00 0.00 1429.00 290.00" xmlns="http://www.w3.org/2000/svg" xmlns:xlink="http://www.w3.org/1999/xlink">
<g id="graph0" class="graph" transform="scale(1 1) rotate(0) translate(4 286)">
<title>dependencies</title>
<polygon fill="#ffffff" stroke="transparent" points="-4,4 -4,-286 1425,-286 1425,4 -4,4"/>
<text text-anchor="start" x="689.5091" y="-42.4" font-family="sans-serif" font-weight="bold" font-size="14.00" fill="#000000">Legend</text>
<polygon fill="#ffffb3" stroke="transparent" points="476.5,-10 476.5,-30 496.5,-30 496.5,-10 476.5,-10"/>
<text text-anchor="start" x="500.129" y="-15.4" font-family="sans-serif" font-size="14.00" fill="#000000"> &#160;Declarations</text>
<polygon fill="#8dd3c7" stroke="transparent" points="589.5,-10 589.5,-30 609.5,-30 609.5,-10 589.5,-10"/>
<text text-anchor="start" x="613.2251" y="-15.4" font-family="sans-serif" font-size="14.00" fill="#000000"> &#160;Module</text>
<polygon fill="#80b1d3" stroke="transparent" points="675.5,-10 675.5,-30 695.5,-30 695.5,-10 675.5,-10"/>
<text text-anchor="start" x="699.2812" y="-15.4" font-family="sans-serif" font-size="14.00" fill="#000000"> &#160;Bootstrap</text>
<polygon fill="#fdb462" stroke="transparent" points="772.5,-10 772.5,-30 792.5,-30 792.5,-10 772.5,-10"/>
<text text-anchor="start" x="796.1732" y="-15.4" font-family="sans-serif" font-size="14.00" fill="#000000"> &#160;Providers</text>
<polygon fill="#fb8072" stroke="transparent" points="868.5,-10 868.5,-30 888.5,-30 888.5,-10 868.5,-10"/>
<text text-anchor="start" x="892.2258" y="-15.4" font-family="sans-serif" font-size="14.00" fill="#000000"> &#160;Exports</text>
<g id="clust1" class="cluster">
<title>cluster_AppModule</title>
<polygon fill="none" stroke="#000000" stroke-dasharray="1,5" points="8,-70 8,-274 423,-274 423,-70 8,-70"/>
</g>
<g id="clust2" class="cluster">
<title>cluster_AppModule_declarations</title>
<polygon fill="none" stroke="#000000" points="293,-78 293,-130 415,-130 415,-78 293,-78"/>
</g>
<g id="clust4" class="cluster">
<title>cluster_AppModule_imports</title>
<polygon fill="none" stroke="#000000" points="16,-78 16,-130 285,-130 285,-78 16,-78"/>
</g>
<g id="clust6" class="cluster">
<title>cluster_AppModule_bootstrap</title>
<polygon fill="none" stroke="#000000" points="162,-214 162,-266 286,-266 286,-214 162,-214"/>
</g>
<g id="clust8" class="cluster">
<title>cluster_UsersModule</title>
<polygon fill="none" stroke="#000000" stroke-dasharray="1,5" points="431,-70 431,-198 1065,-198 1065,-70 431,-70"/>
</g>
<g id="clust9" class="cluster">
<title>cluster_UsersModule_declarations</title>
<polygon fill="none" stroke="#000000" points="439,-78 439,-130 767,-130 767,-78 439,-78"/>
</g>
<g id="clust12" class="cluster">
<title>cluster_UsersModule_imports</title>
<polygon fill="none" stroke="#000000" points="775,-78 775,-130 1057,-130 1057,-78 775,-78"/>
</g>
<g id="clust16" class="cluster">
<title>cluster_UsersRoutingModule</title>
<polygon fill="none" stroke="#000000" stroke-dasharray="1,5" points="1073,-138 1073,-206 1413,-206 1413,-138 1073,-138"/>
</g>
<g id="clust18" class="cluster">
<title>cluster_UsersRoutingModule_imports</title>
<polygon fill="none" stroke="#000000" points="1207,-146 1207,-198 1405,-198 1405,-146 1207,-146"/>
</g>
<g id="clust19" class="cluster">
<title>cluster_UsersRoutingModule_exports</title>
<polygon fill="none" stroke="#000000" points="1081,-146 1081,-198 1199,-198 1199,-146 1081,-146"/>
</g>
<!-- AppComponent -->
<g id="node1" class="node">
<title>AppComponent</title>
<polygon fill="#ffffb3" stroke="#000000" points="406.9399,-122 301.0601,-122 301.0601,-86 406.9399,-86 406.9399,-122"/>
<text text-anchor="middle" x="354" y="-99.8" font-family="Times,serif" font-size="14.00" fill="#000000">AppComponent</text>
</g>
<!-- AppModule -->
<g id="node2" class="node">
<title>AppModule</title>
<polygon fill="#8dd3c7" stroke="#000000" points="265.6571,-190 262.6571,-194 241.6571,-194 238.6571,-190 182.3429,-190 182.3429,-154 265.6571,-154 265.6571,-190"/>
<text text-anchor="middle" x="224" y="-167.8" font-family="Times,serif" font-size="14.00" fill="#000000">AppModule</text>
</g>
<!-- AppComponent&#45;&gt;AppModule -->
<g id="edge1" class="edge">
<title>AppComponent&#45;&gt;AppModule</title>
<path fill="none" stroke="#000000" d="M354,-122.2921C354,-144.2057 354,-178 354,-178 354,-178 275.8484,-178 275.8484,-178"/>
<polygon fill="#000000" stroke="#000000" points="275.8484,-174.5001 265.8484,-178 275.8484,-181.5001 275.8484,-174.5001"/>
</g>
<!-- AppComponent  -->
<g id="node5" class="node">
<title>AppComponent </title>
<polygon fill="#80b1d3" stroke="#000000" points="278.439,-258 169.561,-258 169.561,-222 278.439,-222 278.439,-258"/>
<text text-anchor="middle" x="224" y="-235.8" font-family="Times,serif" font-size="14.00" fill="#000000">AppComponent </text>
</g>
<!-- AppModule&#45;&gt;AppComponent  -->
<g id="edge4" class="edge">
<title>AppModule&#45;&gt;AppComponent </title>
<path fill="none" stroke="#000000" stroke-dasharray="1,5" d="M224,-190.2228C224,-190.2228 224,-211.7269 224,-211.7269"/>
<polygon fill="#000000" stroke="#000000" points="220.5001,-211.7269 224,-221.7269 227.5001,-211.727 220.5001,-211.7269"/>
</g>
<!-- BrowserModule -->
<g id="node3" class="node">
<title>BrowserModule</title>
<polygon fill="#8dd3c7" stroke="#000000" points="277.4734,-122 274.4734,-126 253.4734,-126 250.4734,-122 170.5266,-122 170.5266,-86 277.4734,-86 277.4734,-122"/>
<text text-anchor="middle" x="224" y="-99.8" font-family="Times,serif" font-size="14.00" fill="#000000">BrowserModule</text>
</g>
<!-- BrowserModule&#45;&gt;AppModule -->
<g id="edge2" class="edge">
<title>BrowserModule&#45;&gt;AppModule</title>
<path fill="none" stroke="#000000" d="M224,-122.2228C224,-122.2228 224,-143.7269 224,-143.7269"/>
<polygon fill="#000000" stroke="#000000" points="220.5001,-143.7269 224,-153.7269 227.5001,-143.727 220.5001,-143.7269"/>
</g>
<!-- AppRoutingModule -->
<g id="node4" class="node">
<title>AppRoutingModule</title>
<polygon fill="#8dd3c7" stroke="#000000" points="152.2744,-122 149.2744,-126 128.2744,-126 125.2744,-122 23.7256,-122 23.7256,-86 152.2744,-86 152.2744,-122"/>
<text text-anchor="middle" x="88" y="-99.8" font-family="Times,serif" font-size="14.00" fill="#000000">AppRoutingModule</text>
</g>
<!-- AppRoutingModule&#45;&gt;AppModule -->
<g id="edge3" class="edge">
<title>AppRoutingModule&#45;&gt;AppModule</title>
<path fill="none" stroke="#000000" d="M88,-122.2228C88,-142.3652 88,-172 88,-172 88,-172 172.0858,-172 172.0858,-172"/>
<polygon fill="#000000" stroke="#000000" points="172.0858,-175.5001 182.0858,-172 172.0858,-168.5001 172.0858,-175.5001"/>
</g>
<!-- ListUsersComponent -->
<g id="node6" class="node">
<title>ListUsersComponent</title>
<polygon fill="#ffffb3" stroke="#000000" points="759.4818,-122 624.5182,-122 624.5182,-86 759.4818,-86 759.4818,-122"/>
<text text-anchor="middle" x="692" y="-99.8" font-family="Times,serif" font-size="14.00" fill="#000000">ListUsersComponent</text>
</g>
<!-- UsersModule -->
<g id="node8" class="node">
<title>UsersModule</title>
<polygon fill="#8dd3c7" stroke="#000000" points="810.9218,-190 807.9218,-194 786.9218,-194 783.9218,-190 719.0782,-190 719.0782,-154 810.9218,-154 810.9218,-190"/>
<text text-anchor="middle" x="765" y="-167.8" font-family="Times,serif" font-size="14.00" fill="#000000">UsersModule</text>
</g>
<!-- ListUsersComponent&#45;&gt;UsersModule -->
<g id="edge5" class="edge">
<title>ListUsersComponent&#45;&gt;UsersModule</title>
<path fill="none" stroke="#000000" d="M739.3903,-122.2228C739.3903,-122.2228 739.3903,-143.7269 739.3903,-143.7269"/>
<polygon fill="#000000" stroke="#000000" points="735.8903,-143.7269 739.3903,-153.7269 742.8903,-143.727 735.8903,-143.7269"/>
</g>
<!-- AdminThemeComponent -->
<g id="node7" class="node">
<title>AdminThemeComponent</title>
<polygon fill="#ffffb3" stroke="#000000" points="606.5926,-122 447.4074,-122 447.4074,-86 606.5926,-86 606.5926,-122"/>
<text text-anchor="middle" x="527" y="-99.8" font-family="Times,serif" font-size="14.00" fill="#000000">AdminThemeComponent</text>
</g>
<!-- AdminThemeComponent&#45;&gt;UsersModule -->
<g id="edge6" class="edge">
<title>AdminThemeComponent&#45;&gt;UsersModule</title>
<path fill="none" stroke="#000000" d="M527,-122.2667C527,-140.5552 527,-166 527,-166 527,-166 709.1112,-166 709.1112,-166"/>
<polygon fill="#000000" stroke="#000000" points="709.1112,-169.5001 719.1112,-166 709.1112,-162.5001 709.1112,-169.5001"/>
</g>
<!-- CommonModule -->
<g id="node9" class="node">
<title>CommonModule</title>
<polygon fill="#8dd3c7" stroke="#000000" points="894.6681,-122 891.6681,-126 870.6681,-126 867.6681,-122 783.3319,-122 783.3319,-86 894.6681,-86 894.6681,-122"/>
<text text-anchor="middle" x="839" y="-99.8" font-family="Times,serif" font-size="14.00" fill="#000000">CommonModule</text>
</g>
<!-- CommonModule&#45;&gt;UsersModule -->
<g id="edge7" class="edge">
<title>CommonModule&#45;&gt;UsersModule</title>
<path fill="none" stroke="#000000" d="M796.9383,-122.2228C796.9383,-122.2228 796.9383,-143.7269 796.9383,-143.7269"/>
<polygon fill="#000000" stroke="#000000" points="793.4384,-143.7269 796.9383,-153.7269 800.4384,-143.727 793.4384,-143.7269"/>
</g>
<!-- UsersRoutingModule -->
<g id="node10" class="node">
<title>UsersRoutingModule</title>
<polygon fill="#8dd3c7" stroke="#000000" points="1049.0394,-122 1046.0394,-126 1025.0394,-126 1022.0394,-122 912.9606,-122 912.9606,-86 1049.0394,-86 1049.0394,-122"/>
<text text-anchor="middle" x="981" y="-99.8" font-family="Times,serif" font-size="14.00" fill="#000000">UsersRoutingModule</text>
</g>
<!-- UsersRoutingModule&#45;&gt;UsersModule -->
<g id="edge8" class="edge">
<title>UsersRoutingModule&#45;&gt;UsersModule</title>
<path fill="none" stroke="#000000" d="M981,-122.2228C981,-142.3652 981,-172 981,-172 981,-172 820.808,-172 820.808,-172"/>
<polygon fill="#000000" stroke="#000000" points="820.8081,-168.5001 810.808,-172 820.808,-175.5001 820.8081,-168.5001"/>
</g>
<!-- RouterModule  -->
<g id="node12" class="node">
<title>RouterModule </title>
<polygon fill="#fb8072" stroke="#000000" points="1190.6523,-190 1089.3477,-190 1089.3477,-154 1190.6523,-154 1190.6523,-190"/>
<text text-anchor="middle" x="1140" y="-167.8" font-family="Times,serif" font-size="14.00" fill="#000000">RouterModule </text>
</g>
<!-- UsersRoutingModule&#45;&gt;RouterModule  -->
<g id="edge10" class="edge">
<title>UsersRoutingModule&#45;&gt;RouterModule </title>
<path fill="none" stroke="#000000" stroke-dasharray="5,2" d="M1049.3531,-110C1092.4475,-110 1140,-110 1140,-110 1140,-110 1140,-143.7333 1140,-143.7333"/>
<polygon fill="#000000" stroke="#000000" points="1136.5001,-143.7333 1140,-153.7333 1143.5001,-143.7333 1136.5001,-143.7333"/>
</g>
<!-- RouterModule.forChild(args) -->
<g id="node11" class="node">
<title>RouterModule.forChild(args)</title>
<polygon fill="#8dd3c7" stroke="#000000" points="1396.7323,-190 1393.7323,-194 1372.7323,-194 1369.7323,-190 1215.2677,-190 1215.2677,-154 1396.7323,-154 1396.7323,-190"/>
<text text-anchor="middle" x="1306" y="-167.8" font-family="Times,serif" font-size="14.00" fill="#000000">RouterModule.forChild(args)</text>
</g>
<!-- RouterModule.forChild(args)&#45;&gt;UsersRoutingModule -->
<g id="edge9" class="edge">
<title>RouterModule.forChild(args)&#45;&gt;UsersRoutingModule</title>
<path fill="none" stroke="#000000" d="M1306,-153.7079C1306,-131.7943 1306,-98 1306,-98 1306,-98 1059.1306,-98 1059.1306,-98"/>
<polygon fill="#000000" stroke="#000000" points="1059.1307,-94.5001 1049.1306,-98 1059.1306,-101.5001 1059.1307,-94.5001"/>
</g>
</g>
</svg>
